<?xml version="1.0" encoding="UTF-8"?>
<svg width="51px" height="51px" viewBox="0 0 51 51" version="1.1" xmlns="http://www.w3.org/2000/svg" xmlns:xlink="http://www.w3.org/1999/xlink">
    <title>0753985C-388C-4437-BC92-9D3D7743BAF9</title>
    <g id="Page-1" stroke="none" stroke-width="1" fill="none" fill-rule="evenodd">
        <g id="Weather-Forecast" transform="translate(-24.000000, -59.000000)" stroke="#54C7FC" stroke-width="2">
            <g id="Cloud-Icon" transform="translate(25.000000, 60.000000)">
                <path d="M37.6606926,47.9043494 L24.4880386,44.4539285 L11.3148851,47.9043494 C9.42579709,48.3575107 7.53521024,47.15441 7.09304074,45.215859 C6.65137087,43.2778076 7.82449401,41.3382573 9.71458124,40.885096 L24.4435719,37.0234824 L24.5325054,37 L39.261496,40.885096 C41.1510836,41.3382573 42.3247064,43.2778076 41.8830365,45.215859 C41.440867,47.15441 39.5507798,48.3580103 37.6606926,47.9043494 Z" id="Open" transform="translate(24.488026, 42.500000) scale(1, -1) translate(-24.488026, -42.500000) "></path>
                <path d="M22.6293107,0 C28.0855823,0 32.816994,3.03677932 35.1545944,7.47726324 C35.6637874,7.41399562 36.1828354,7.38095238 36.7097707,7.38095238 C43.3752764,7.38095238 48.7787364,12.6682563 48.7787364,19.1904762 C48.7787364,25.7126961 43.3752764,31 36.7097707,31 C36.5409897,31 36.3730178,30.9966099 36.2059224,30.9898954 L36.2068971,31 L8.612,30.999 L8.54885071,31 C3.91329447,31 0.139475551,27.3897765 0.00377818714,22.8860307 L5.15143483e-14,22.6349206 C5.15143483e-14,18.0150149 3.82745083,14.2698413 8.54885071,14.2698413 C8.55219093,14.2698413 8.5555307,14.2698431 8.55887002,14.2698469 L8.55229242,14.0854602 L8.55229242,14.0854602 L8.54885071,13.7777778 C8.54885071,6.16852122 14.8528874,0 22.6293107,0 Z" id="Cloud"></path>
            </g>
        </g>
    </g>
</svg>