<?xml version="1.0" encoding="UTF-8"?>
<svg width="51px" height="50px" viewBox="0 0 51 50" version="1.1" xmlns="http://www.w3.org/2000/svg" xmlns:xlink="http://www.w3.org/1999/xlink">
    <title>D6677622-BF10-458E-A244-1E536DD8B1CF</title>
    <g id="Page-1" stroke="none" stroke-width="1" fill="none" fill-rule="evenodd">
        <g id="Weather-Forecast" transform="translate(-674.000000, -58.000000)" stroke="#54C7FC" stroke-width="2">
            <path d="M699.280057,59.0046378 C700.46951,59.0078984 701.516718,59.4443223 702.268361,60.1651944 C702.968154,60.8363396 703.407824,61.7514421 703.467064,62.7705763 L703.473926,63.0075441 L703.473926,65.9924559 C703.473926,66.119007 703.468082,66.2441924 703.456631,66.3677546 L703.43528,66.5518482 L703.315167,67.4130445 L704.151333,67.6516099 C705.87989,68.1447824 707.496561,68.9055992 708.953241,69.8859846 L709.346515,70.1587701 L710.058127,70.6673067 L710.656883,70.0297389 C710.735689,69.9458246 710.819302,69.864872 710.907291,69.7870239 L711.042503,69.6725979 L713.362215,67.7941321 C714.194548,67.1201216 715.215284,66.8347335 716.204446,66.913807 C717.192874,66.9928218 718.150228,67.4354209 718.855869,68.2192902 C719.672883,69.2300004 719.972381,70.290334 719.863638,71.3175032 C719.76354,72.2630184 719.32763,73.1735511 718.575861,73.8575599 L718.396778,74.0112998 L716.077066,75.8897656 C715.972888,75.9741274 715.865773,76.0524284 715.756139,76.1246957 L715.58985,76.228575 L714.841149,76.6711851 L715.175672,77.4740249 C715.839728,79.0677276 716.267402,80.7851972 716.415678,82.5819624 L716.449157,83.0739219 L716.495843,83.9443946 L717.364546,84.0169004 C717.489559,84.0273345 717.615322,84.0440047 717.741377,84.0669113 L717.93062,84.1059484 L720.839029,84.7774075 C721.886188,85.0191631 722.741783,85.6513202 723.288226,86.4837004 C723.834028,87.3151041 724.071916,88.3464231 723.882786,89.38818 C723.593677,90.635357 722.941349,91.5232738 722.065251,92.0698029 C721.258548,92.5730417 720.272666,92.7901201 719.270824,92.6188357 L719.039421,92.572368 L716.131012,91.9009089 C716.009763,91.8729163 715.891071,91.8397149 715.775125,91.8015797 L715.603288,91.7407109 L714.791066,91.4320533 L714.372031,92.193226 C713.513154,93.7533673 712.415268,95.1641233 711.12831,96.3764723 L710.772672,96.702157 L710.121585,97.281747 L710.6069,98.0058378 C710.672809,98.1041737 710.734643,98.2064507 710.792284,98.3123862 L710.875586,98.4739979 L712.184085,101.156819 C712.65444,102.121189 712.702217,103.182061 712.400847,104.129392 C712.099743,105.07589 711.450316,105.909555 710.524299,106.419454 C709.365028,106.983476 708.264624,107.03595 707.288516,106.699025 C706.389751,106.388798 705.600614,105.759235 705.103247,104.872865 L704.993733,104.663788 L703.685233,101.980967 C703.627439,101.86247 703.575995,101.742525 703.530788,101.621511 L703.46764,101.439236 L703.203147,100.611908 L702.346942,100.757994 C701.413428,100.91727 700.453343,101 699.473926,101 C698.690273,101 697.918995,100.947035 697.163486,100.844435 L696.599865,100.75823 L695.741477,100.612131 L695.478701,101.442265 C695.440395,101.563278 695.395505,101.683678 695.344249,101.802955 L695.262619,101.980967 L693.95412,104.663788 C693.483765,105.628158 692.677201,106.318945 691.745152,106.664698 C690.813923,107.010147 689.757159,107.011646 688.785454,106.595965 C687.627155,106.029691 686.908261,105.194825 686.572788,104.21815 C686.265744,103.324239 686.274066,102.321414 686.659513,101.38849 L686.763768,101.156819 L688.072267,98.4739979 C688.125906,98.3640207 688.183896,98.2575862 688.245943,98.1548093 L688.342017,98.0034016 L688.824038,97.280025 L688.174801,96.7020031 C686.854372,95.5264122 685.718107,94.1478392 684.815308,92.6152424 L684.574916,92.1934795 L684.15625,91.4338921 L683.345099,91.7409569 C683.232207,91.7836927 683.116108,91.8218249 682.997218,91.8549728 L682.816841,91.9009089 L679.908432,92.572368 C678.861273,92.8141236 677.81515,92.6210129 676.959118,92.1124194 C676.104039,91.6043915 675.438098,90.7816611 675.151386,89.7620687 C674.864663,88.5145696 675.061753,87.4307126 675.609535,86.5555466 C676.11399,85.7496033 676.904934,85.1223122 677.880469,84.8370831 L678.108823,84.7774075 L681.017232,84.1059484 C681.143721,84.0767461 681.270193,84.0538593 681.39632,84.0371003 L681.58521,84.0165342 L682.452737,83.9428385 L682.499144,83.0734239 C682.595744,81.2636388 682.976091,79.5281277 683.596452,77.9114168 L683.77156,77.4734745 L684.105301,76.6714858 L683.357882,76.2288428 C683.245898,76.1625232 683.136218,76.0901912 683.029221,76.0118305 L682.870787,75.8897656 L680.551075,74.0112998 C679.718741,73.3372893 679.227367,72.3981949 679.099054,71.4142075 C678.970852,70.4310721 679.204661,69.4027487 679.824445,68.5496714 C680.643265,67.5401268 681.618272,67.0266052 682.64573,66.919398 C683.585799,66.8213091 684.56105,67.055005 685.383356,67.6404352 L685.585638,67.7941321 L687.90535,69.6725979 C687.99845,69.7479891 688.087304,69.8266799 688.171868,69.9083767 L688.29549,70.0331396 L688.894552,70.6647905 L689.602702,70.1584479 C691.028632,69.1388755 692.619797,68.3343252 694.327996,67.7924808 L694.796734,67.6512542 L695.633489,67.4123446 L695.512468,66.5506077 C695.495439,66.4293466 695.483985,66.30601 695.478242,66.181052 L695.473926,65.9924559 L695.473926,63.0075441 C695.473926,61.9328408 695.897414,60.9569701 696.585538,60.2372873 C697.272432,59.5188902 698.223059,59.055232 699.280057,59.0046378 Z M699.473926,73 C696.43636,73 693.68636,74.2312169 691.695752,76.2218254 C689.705143,78.2124339 688.473926,80.9624339 688.473926,84 C688.473926,87.0375661 689.705143,89.7875661 691.695752,91.7781746 C693.68636,93.7687831 696.43636,95 699.473926,95 C702.511492,95 705.261492,93.7687831 707.252101,91.7781746 C709.242709,89.7875661 710.473926,87.0375661 710.473926,84 C710.473926,80.9624339 709.242709,78.2124339 707.252101,76.2218254 C705.261492,74.2312169 702.511492,73 699.473926,73 Z" id="Settings-Icon"></path>
        </g>
    </g>
</svg>