<?xml version="1.0" encoding="UTF-8"?>
<svg width="42px" height="27px" viewBox="0 0 42 27" version="1.1" xmlns="http://www.w3.org/2000/svg" xmlns:xlink="http://www.w3.org/1999/xlink">
    <title>33945F97-1ABB-4890-B9E6-41B6780EDF00</title>
    <g id="Page-1" stroke="none" stroke-width="1" fill="none" fill-rule="evenodd">
        <g id="Weather-Forecast" transform="translate(-414.000000, -669.000000)" stroke="#C8C7CC" stroke-width="2">
            <g id="Group-2" transform="translate(279.000000, 378.000000)">
                <g id="Group" transform="translate(17.000000, 285.000000)">
                    <path d="M137.192844,7 C141.580063,7 145.384359,9.4472282 147.263383,13.0254559 C147.672472,12.9728673 148.089488,12.9462822 148.512836,12.9462822 C153.871572,12.9462822 158.215686,17.2058682 158.215686,22.4603337 C158.215686,27.7147993 153.871572,31.9743852 148.512836,31.9743852 C148.377283,31.9743852 148.242379,31.9716596 148.108178,31.9662613 L148.108551,31.9743852 L125.872852,31.9743852 C122.077081,31.9743852 119,28.9571785 119,25.2352654 C119,21.5133523 122.077081,18.4961456 125.872852,18.4961456 C125.875522,18.4961456 125.878191,18.4961471 125.880859,18.4961501 L125.876549,18.3862157 L125.876549,18.3862157 L125.872852,18.0997268 C125.872852,11.969517 130.940985,7 137.192844,7 Z" id="Oval-1"></path>
                </g>
            </g>
        </g>
    </g>
</svg>