<?xml version="1.0" encoding="UTF-8"?>
<svg width="41px" height="40px" viewBox="0 0 41 40" version="1.1" xmlns="http://www.w3.org/2000/svg" xmlns:xlink="http://www.w3.org/1999/xlink">
    <title>3ADD7E5F-E859-4A34-84CE-C2471D39341E</title>
    <g id="Page-1" stroke="none" stroke-width="1" fill="none" fill-rule="evenodd">
        <g id="Weather-Forecast" transform="translate(-32.000000, -1152.000000)">
            <g id="1-Cloud-Rain-Icon" transform="translate(33.000000, 1153.000000)">
                <path d="M17.8017485,0 C22.0792084,0 25.7883389,2.39120357 27.6204228,5.88753823 C28.0189209,5.83637432 28.4257401,5.81036718 28.8387407,5.81036718 C34.0635084,5.81036718 38.2990196,9.97259117 38.2990196,15.1069547 C38.2990196,20.2413182 34.0635084,24.4035422 28.8387407,24.4035422 C28.7066387,24.4035422 28.5751691,24.4008814 28.4443844,24.3956114 L28.4445624,24.4035422 L6.76475642,24.4035422 C3.06387923,24.4035422 0.0637254902,21.4553002 0.0637254902,17.8184594 C0.0637254902,14.1816185 3.06387923,11.2333765 6.76475642,11.2333765 C6.76710193,11.2333765 6.76944715,11.2333777 6.7717921,11.2333801 L6.76847629,11.130389 L6.76847629,11.130389 L6.76475642,10.8460187 C6.76475642,4.85592799 11.7061861,0 17.8017485,0 Z" id="Oval-1" stroke="#C1C1C6" stroke-width="2" opacity="0.948320866"></path>
                <line x1="7.39655172" y1="29.1785714" x2="4.70689655" y2="33.25" id="Line" stroke="#54C9F9" stroke-linecap="square"></line>
                <line x1="12.7758621" y1="31.8928571" x2="8.74137931" y2="37.3214286" id="Line" stroke="#54C9F9" stroke-linecap="square"></line>
                <line x1="20.8448276" y1="29.1785714" x2="16.8103448" y2="34.6071429" id="Line" stroke="#54C9F9" stroke-linecap="square"></line>
                <line x1="28.9137931" y1="29.1785714" x2="23.5344828" y2="37.3214286" id="Line" stroke="#54C9F9" stroke-linecap="square"></line>
                <line x1="32.9482759" y1="34.6071429" x2="31.6034483" y2="37.3214286" id="Line" stroke="#54C9F9" stroke-linecap="square"></line>
            </g>
        </g>
    </g>
</svg>