<?xml version="1.0" encoding="UTF-8"?>
<svg width="52px" height="39px" viewBox="0 0 52 39" version="1.1" xmlns="http://www.w3.org/2000/svg" xmlns:xlink="http://www.w3.org/1999/xlink">
    <title>28750C99-E371-4DFB-B34F-347C1F39C1C6</title>
    <g id="Page-1" stroke="none" stroke-width="1" fill="none" fill-rule="evenodd">
        <g id="Weather-Forecast" transform="translate(-136.000000, -1154.000000)">
            <g id="2-Cloud-Sun-Icon" transform="translate(136.000000, 1154.000000)">
                <path d="M18.0365854,0.612903226 L18.0365854,6.74193548 M29.8788158,5.45981359 L25.5449356,9.79369386 M34.7840283,17.1612903 L28.6549961,17.1612903 M29.8788158,28.8627671 L25.5449356,24.5288868 M18.0365854,33.7096774 L18.0365854,27.5806452 M6.19435488,28.8627671 L10.5282352,24.5288868 M1.28914241,17.1612903 L7.41817467,17.1612903 M6.19435488,5.45981359 L10.5282352,9.79369386" id="Line" stroke="#FFDB08" stroke-linecap="square"></path>
                <path d="M18.0365854,9.80645161 C21.7477595,9.80645161 24.8749484,12.2704157 25.8254881,15.6288496 C22.348673,17.1906546 19.9400092,20.5784415 19.9400092,24.5060814 C19.9400092,24.6233119 19.942155,24.7400614 19.9464111,24.8562958 C19.9446835,24.8559543 19.9423465,24.855953 19.9400092,24.855953 C18.8098606,24.855953 17.7503582,25.1462094 16.8380393,25.653276 C12.941281,25.0846533 9.95121951,21.7735267 9.95121951,17.7741935 C9.95121951,13.3737312 13.5711611,9.80645161 18.0365854,9.80645161 Z" id="Oval-148" stroke="#FFDB08" stroke-width="2"></path>
                <path d="M31.3926117,15.9354839 C35.3490113,15.9354839 38.7797462,18.0952259 40.4743604,21.2531403 C40.8425276,21.2070783 41.2190572,21.1835575 41.6013117,21.1835575 C46.4339769,21.1835575 50.351626,24.9429856 50.351626,29.5804752 C50.351626,34.2179648 46.4339769,37.9773929 41.6013117,37.9773929 C41.4789743,37.9773929 41.3572233,37.9749837 41.2361073,37.9702122 L41.2367153,37.9773929 L21.1839117,37.9773929 C17.7607738,37.9773929 14.9857724,35.3144647 14.9857724,32.0295762 C14.9857724,28.7446877 17.7607738,26.0817595 21.1839117,26.0817595 C21.186259,26.0817595 21.1886061,26.0817607 21.1909529,26.0817632 L21.1878336,26.006094 L21.1878336,26.006094 L21.1839117,25.7318879 C21.1839117,20.3214833 25.7545023,15.9354839 31.3926117,15.9354839 Z" id="Oval-1" stroke="#C1C1C6" stroke-width="2" fill-opacity="0.7" fill="#4E555E" opacity="0.948320866"></path>
            </g>
        </g>
    </g>
</svg>